<?xml version="1.0" encoding="UTF-8" standalone="no"?>
<svg
   width="24"
   height="24"
   viewBox="0 0 24 24"
   fill="none"
   stroke="currentColor"
   stroke-width="2"
   stroke-linecap="round"
   stroke-linejoin="round"
   class="feather feather-square"
   version="1.1"
   id="svg1"
   sodipodi:docname="carousel.svg"
   inkscape:version="1.4 (e7c3feb100, 2024-10-09)"
   xml:space="preserve"
   xmlns:inkscape="http://www.inkscape.org/namespaces/inkscape"
   xmlns:sodipodi="http://sodipodi.sourceforge.net/DTD/sodipodi-0.dtd"
   xmlns="http://www.w3.org/2000/svg"
   xmlns:svg="http://www.w3.org/2000/svg"><defs
     id="defs1" /><sodipodi:namedview
     id="namedview1"
     pagecolor="#ffffff"
     bordercolor="#000000"
     borderopacity="0.25"
     inkscape:showpageshadow="2"
     inkscape:pageopacity="0.0"
     inkscape:pagecheckerboard="0"
     inkscape:deskcolor="#d1d1d1"
     inkscape:zoom="8.8333333"
     inkscape:cx="5.2641509"
     inkscape:cy="9.0566038"
     inkscape:window-width="1920"
     inkscape:window-height="1056"
     inkscape:window-x="0"
     inkscape:window-y="0"
     inkscape:window-maximized="1"
     inkscape:current-layer="svg1" /><g
     id="g1"
     transform="matrix(0.04352293,0,0,0.04308817,0.85812992,0.96942848)"
     style="fill:#000000;stroke:none;stroke-width:23.092;stroke-dasharray:none">
	<path
   d="M 358.4,25.6 H 153.6 c -28.25,0 -51.2,22.98 -51.2,51.2 v 358.4 c 0,28.25 22.95,51.2 51.2,51.2 h 204.8 c 28.23,0 51.2,-22.95 51.2,-51.2 V 76.8 c 0,-28.22 -22.98,-51.2 -51.2,-51.2 z M 0,128 v 256 c 0,28.25 22.95,51.2 51.2,51.2 V 76.8 C 22.95,76.8 0,99.78 0,128 Z M 460.8,76.8 v 358.4 c 28.23,0 51.2,-22.95 51.2,-51.2 V 128 C 512,99.78 489.02,76.8 460.8,76.8 Z"
   id="path1"
   style="fill:#000000;stroke:none;stroke-width:23.092;stroke-dasharray:none" />
</g></svg>
