<?xml version="1.0" encoding="UTF-8" standalone="no"?>
<svg
   width="24"
   height="24"
   viewBox="0 0 24 24"
   fill="none"
   stroke="currentColor"
   stroke-width="2"
   stroke-linecap="round"
   stroke-linejoin="round"
   class="feather feather-airplay"
   version="1.1"
   id="svg1"
   sodipodi:docname="drag-drop.svg"
   xml:space="preserve"
   inkscape:version="1.4 (e7c3feb100, 2024-10-09)"
   xmlns:inkscape="http://www.inkscape.org/namespaces/inkscape"
   xmlns:sodipodi="http://sodipodi.sourceforge.net/DTD/sodipodi-0.dtd"
   xmlns="http://www.w3.org/2000/svg"
   xmlns:svg="http://www.w3.org/2000/svg"><defs
     id="defs1" /><sodipodi:namedview
     id="namedview1"
     pagecolor="#ffffff"
     bordercolor="#000000"
     borderopacity="0.25"
     inkscape:showpageshadow="2"
     inkscape:pageopacity="0.0"
     inkscape:pagecheckerboard="0"
     inkscape:deskcolor="#d1d1d1"
     inkscape:zoom="17.666667"
     inkscape:cx="10.726415"
     inkscape:cy="12.339623"
     inkscape:window-width="1920"
     inkscape:window-height="1056"
     inkscape:window-x="0"
     inkscape:window-y="0"
     inkscape:window-maximized="1"
     inkscape:current-layer="svg1" /><path
     style="fill:#000000;stroke:#000000;stroke-width:0.7;stroke-dasharray:none;stroke-opacity:1"
     d="m 10.836894,23.328894 -0.08374,-0.05106 -0.05788,-0.07359 -0.05788,-0.07359 -0.01724,-0.09193 -0.01725,-0.09193 0.06398,-0.128537 0.06398,-0.128536 0.09489,-0.05468 0.09489,-0.05468 h 0.842576 0.842577 l 0.09959,0.07596 0.09959,0.07596 0.04365,0.08443 0.04365,0.08443 -0.01359,0.120607 -0.01359,0.120608 -0.05236,0.07146 -0.05236,0.07146 -0.09297,0.0474 -0.09297,0.0474 -0.826911,-5.9e-5 -0.826909,-6e-5 z m 2.923454,-0.0028 -0.08836,-0.05387 -0.05387,-0.08836 -0.05387,-0.08836 -1.01e-4,-0.128703 -1.01e-4,-0.128702 0.09781,-0.108267 0.09781,-0.108268 0.107277,-0.02888 0.107276,-0.02889 0.777714,0.0083 0.777715,0.0083 0.08998,0.05422 0.08998,0.05422 0.05235,0.08454 0.05235,0.08454 -10e-5,0.118803 -1.02e-4,0.118803 -0.05387,0.08836 -0.05388,0.08836 -0.08836,0.05387 -0.08836,0.05387 H 14.68918 13.848714 Z m 2.918778,-0.0075 -0.09212,-0.06154 -0.0474,-0.09435 -0.0474,-0.09435 -4.2e-5,-0.08946 -4.2e-5,-0.08946 0.04064,-0.07859 0.04064,-0.07859 0.09959,-0.07596 0.09959,-0.07596 h 0.842576 0.842577 l 0.08931,0.04876 0.08931,0.04876 0.05294,0.0868 0.05294,0.0868 0.01649,0.08722 0.01648,0.08722 -0.05708,0.117904 -0.05708,0.117904 -0.105359,0.05922 -0.105358,0.05922 h -0.839543 -0.839544 z m 2.998625,0.03599 -0.05422,-0.02212 -0.07324,-0.07343 -0.07324,-0.07343 -0.03112,-0.09427 -0.03112,-0.09428 0.01732,-0.09234 0.01732,-0.09234 0.08769,-0.09299 0.08769,-0.09299 0.11639,-0.03134 0.11639,-0.03134 0.764082,0.0083 0.76408,0.0083 0.09206,0.05422 0.09206,0.05422 0.05706,0.07655 0.05706,0.07655 v 0.140349 0.140349 l -0.06047,0.08477 -0.06047,0.08477 -0.09274,0.04401 -0.09274,0.04401 -0.822813,-0.0018 -0.822813,-0.0018 z M 9.5340619,22.971293 9.4488605,22.946334 9.3092129,22.820779 9.1695654,22.695224 9.0481094,22.525018 8.9266525,22.354812 8.8324355,22.150899 8.7382185,21.946984 8.6950515,21.762107 8.6518845,21.57723 l -0.00429,-0.189783 -0.00429,-0.189782 0.055188,-0.09393 0.055188,-0.09393 0.090617,-0.05292 0.090617,-0.05292 h 0.1195776 0.1195776 l 0.073522,0.05446 0.073522,0.05446 0.061003,0.08963 0.061003,0.08963 4e-4,0.111216 4.01e-4,0.111215 0.040074,0.169969 0.040074,0.169969 0.071453,0.141014 0.071453,0.141016 0.1555554,0.163473 0.1555559,0.163473 0.03074,0.05922 0.03075,0.05922 v 0.09935 0.09935 l -0.04356,0.09179 -0.043558,0.09179 -0.085231,0.05172 -0.085231,0.05172 -0.081338,0.01431 -0.081338,0.01431 z m 12.8743411,-0.232681 -0.08898,-0.04385 -0.05768,-0.081 -0.05768,-0.081 -0.01157,-0.125317 -0.01157,-0.125318 0.115002,-0.176226 0.115001,-0.176227 0.06886,-0.149115 0.06886,-0.149115 0.01671,-0.366009 0.01672,-0.36601 0.03117,-0.05729 0.03116,-0.05729 0.09687,-0.08506 0.09687,-0.08506 0.127839,1.01e-4 0.127837,1.02e-4 0.08836,0.05387 0.08836,0.05387 0.0557,0.08836 0.0557,0.08836 -0.01181,0.393122 -0.01181,0.393121 -0.06084,0.189783 -0.06084,0.189783 -0.08932,0.177484 -0.08932,0.177484 -0.113461,0.143538 -0.113461,0.143539 -0.09145,0.03821 -0.09145,0.03821 -0.07542,-6.18e-4 -0.07542,-6.18e-4 z m -13.5244322,-2.54237 -0.084616,-0.03682 -0.078059,-0.102284 -0.078059,-0.102284 -0.00781,-0.815521 -0.00781,-0.81552 0.062018,-0.120416 0.062018,-0.120416 0.068419,-0.04974 0.068419,-0.04974 0.099286,-0.01611 0.099287,-0.01611 0.118759,0.05749 0.118759,0.05749 0.059218,0.105358 0.059217,0.105359 v 0.823641 0.823642 l -0.05027,0.09447 -0.05027,0.09447 -0.1056255,0.06055 -0.1056246,0.06055 -0.081338,-6.16e-4 -0.081338,-6.14e-4 z m 13.8980822,-0.318085 -0.09489,-0.06364 -0.06203,-0.121784 -0.06203,-0.121784 0.0078,-0.799799 0.0078,-0.799798 0.05468,-0.09489 0.05468,-0.09489 0.128537,-0.06398 0.128537,-0.06398 0.09389,0.01761 0.09389,0.01761 0.0831,0.06993 0.0831,0.06993 0.03969,0.07676 0.03969,0.07676 -4.2e-5,0.821478 -4.2e-5,0.821479 -0.0474,0.09296 -0.0474,0.09297 -0.07254,0.05316 -0.07254,0.05316 -0.130801,0.01219 -0.130801,0.01219 z m -9.147003,-1.189273 -0.0781,-0.02339 -0.06681,-0.0624 -0.06681,-0.0624 -0.03809,-0.07321 -0.03809,-0.07321 1.01e-4,-0.103016 1.02e-4,-0.103016 0.05387,-0.08836 0.05387,-0.08836 0.08836,-0.05387 0.08836,-0.05388 1.836825,-10e-5 1.836827,-1.02e-4 v -0.02036 -0.02036 l -4.827637,-4.825865 -4.8276337,-4.8258751 -0.038942,-0.07321 -0.038942,-0.07321 4.2e-5,-0.089456 4.19e-5,-0.089456 0.047401,-0.092968 0.047401,-0.092968 0.068419,-0.050085 0.068419,-0.050085 0.099562,-0.016158 0.099561,-0.016158 0.07603,0.018412 0.07603,0.018412 3.1079808,3.1062741 3.10798,3.106275 0.02767,-0.01711 0.02767,-0.0171 0.04999,-0.128749 0.04999,-0.12875 0.0071,-5.4706884 0.0071,-5.4706895 L 14.500038,2.4080479 14.459318,2.23246 14.394108,2.1039222 14.328818,1.9753824 14.210994,1.8417757 14.093171,1.7081679 13.937835,1.6077694 13.782499,1.5073709 l -0.170231,-0.045079 -0.170232,-0.045079 -5.5443654,0.008 -5.5443671,0.008 L 2.1423723,1.5339383 1.9314335,1.6346617 1.7821953,1.7839008 1.6329572,1.9331389 1.5322338,2.1440777 1.4315103,2.3550166 l -0.008,5.5443654 -0.008,5.544366 0.045079,0.170232 0.045079,0.170231 0.1003976,0.155336 0.1003985,0.155336 0.1336078,0.117823 0.1336077,0.117824 0.1282617,0.06515 0.1282617,0.06515 0.169968,0.04007 0.1699686,0.04007 4.2931249,4e-4 4.2931262,4.01e-4 0.09274,0.04401 0.09274,0.04401 0.06047,0.08477 0.06047,0.08477 v 0.140349 0.140349 l -0.0559,0.07487 -0.0559,0.07487 -0.07482,0.0559 -0.07482,0.0559 -0.879198,0.0082 -0.8792002,0.0082 v 0.813309 0.813311 l -0.039693,0.07676 -0.039693,0.07676 -0.083104,0.06993 -0.083104,0.06993 -0.093885,0.01761 -0.093886,0.01761 -0.1289916,-0.06398 -0.1289915,-0.06398 -0.061657,-0.122003 -0.061657,-0.122003 0.00742,-0.792178 0.00742,-0.792178 -3.1314146,-0.0088 -3.1314145,-0.0088 L 2.204104,15.291987 2.027877,15.244717 1.7838629,15.125393 1.5398563,15.00603 1.3710878,14.868114 1.2023193,14.730198 1.0656575,14.561429 0.92899567,14.392661 0.82183625,14.175766 0.71467586,13.958872 0.66636708,13.782645 0.61805831,13.606418 V 7.9535979 2.3007851 L 0.69253637,2.0838903 0.76701443,1.8669965 0.86875948,1.683833 0.97050548,1.5006695 1.0914804,1.3574625 1.2124553,1.2142563 1.3556623,1.0932814 1.4988684,0.97230651 1.682032,0.87056053 1.8651955,0.76881452 2.0820903,0.69433647 2.2989851,0.61985841 h 5.6528128 5.6528141 l 0.176227,0.0483088 0.176227,0.0483088 0.216894,0.10716038 0.216894,0.10716039 0.168769,0.13666182 0.168768,0.1366618 0.137917,0.1687686 0.137917,0.1687684 0.119407,0.2440066 0.119409,0.2440057 0.04837,0.1897829 0.04837,0.1897829 v 5.5579214 5.5579221 l -0.06129,0.229976 -0.06129,0.229976 -0.113351,0.225636 -0.113351,0.225636 1.435245,1.435437 1.435244,1.435437 h 0.02043 0.02043 l 1.02e-4,-1.836826 1.01e-4,-1.836825 0.05387,-0.08836 0.05387,-0.08836 0.08836,-0.05387 0.08836,-0.05387 0.111216,-1.01e-4 0.111216,-1.01e-4 0.08963,0.061 0.08963,0.061 0.05672,0.07654 0.05672,0.07654 0.0073,2.546533 0.0073,2.546533 -2.501606,-0.0023 -2.501605,-0.0023 z m 9.185371,-1.718535 -0.08364,-0.03641 -0.05861,-0.07451 -0.05861,-0.07451 -0.02875,-0.106735 -0.02875,-0.106734 0.0083,-0.764082 0.0083,-0.764082 0.05422,-0.09206 0.05422,-0.09206 0.07146,-0.05327 0.07146,-0.05326 0.118323,-0.01169 0.118322,-0.01169 0.105626,0.06212 0.105624,0.06212 0.05027,0.09447 0.05027,0.09447 v 0.827757 0.827756 l -0.04945,0.09447 -0.04945,0.09447 -0.118964,0.061 -0.118964,0.061 -0.06881,-0.0011 -0.06881,-0.0011 z m 0.05151,-2.919137 -0.08634,-0.02526 -0.08244,-0.08244 -0.08244,-0.08244 -0.02929,-0.108773 -0.02929,-0.108775 0.0083,-0.782564 0.0083,-0.782564 0.05672,-0.07649 0.05672,-0.07649 0.08963,-0.061 0.08963,-0.061 0.111216,1.02e-4 0.111215,1.01e-4 0.08836,0.05387 0.08836,0.05387 0.05387,0.08836 0.05387,0.08836 1.01e-4,0.843234 1.02e-4,0.843235 -0.061,0.08963 -0.061,0.08963 -0.06779,0.04785 -0.06778,0.04785 -0.08134,0.01348 -0.08134,0.01347 z m -0.09016,-2.986591 -0.08963,-0.061 -0.05102,-0.06893 -0.05102,-0.06893 -0.02422,-0.229307 -0.02422,-0.229308 -0.04262,-0.119028 -0.04262,-0.119027 -0.06017,-0.09787 -0.06017,-0.097866 -0.152973,-0.164886 -0.152974,-0.1648861 -0.03224,-0.09769 -0.03224,-0.097689 0.02901,-0.1077351 0.02901,-0.1077361 0.09393,-0.082479 0.09393,-0.082479 0.09664,-0.018129 0.09664,-0.018129 0.120299,0.045938 0.1203,0.045948 0.164448,0.1794664 0.164448,0.1794655 0.09542,0.1570772 0.09542,0.1570772 0.06655,0.1637727 0.06654,0.1637747 0.04013,0.190769 0.04013,0.19077 -1.01e-4,0.167676 -1.02e-4,0.167677 -0.05387,0.08836 -0.05387,0.08836 -0.08836,0.05387 -0.08836,0.05387 -0.111216,1.02e-4 -0.111215,1.02e-4 z m -6.371276,-1.6809342 -0.08963,-0.061003 -0.05672,-0.076595 -0.05672,-0.076595 0.002,-0.1313899 0.002,-0.1313899 0.07216,-0.094598 0.07216,-0.094598 0.116854,-0.04463 0.116855,-0.04463 0.803484,0.00829 0.803484,0.00829 0.07649,0.05672 0.07649,0.05672 0.06341,0.092402 0.06342,0.092402 -0.01166,0.1253169 -0.01166,0.125317 -0.05801,0.081454 -0.058,0.081455 -0.09274,0.044006 -0.09274,0.044006 h -0.825581 -0.825582 z m 2.934882,0.00693 -0.08836,-0.053871 -0.05387,-0.088363 -0.05387,-0.088363 -1.01e-4,-0.1188029 -1.02e-4,-0.1188028 0.05235,-0.084538 0.05235,-0.084538 0.08998,-0.054222 0.08998,-0.054222 h 0.840467 0.840466 l 0.08998,0.054222 0.08998,0.054222 0.05235,0.084538 0.05235,0.084538 v 0.121572 0.121571 l -0.06154,0.092119 -0.06154,0.092119 -0.09435,0.047401 -0.09435,0.047401 -0.82691,-5.86e-5 -0.82691,-5.95e-5 z"
     id="path10" /></svg>
