<?xml version="1.0" encoding="UTF-8" standalone="no"?>
<svg
   width="24"
   height="24"
   viewBox="0 0 24 24"
   fill="none"
   stroke="currentColor"
   stroke-width="2"
   stroke-linecap="round"
   stroke-linejoin="round"
   class="feather feather-square"
   version="1.1"
   id="svg1"
   sodipodi:docname="mass-storage.svg"
   inkscape:version="1.4 (e7c3feb100, 2024-10-09)"
   xmlns:inkscape="http://www.inkscape.org/namespaces/inkscape"
   xmlns:sodipodi="http://sodipodi.sourceforge.net/DTD/sodipodi-0.dtd"
   xmlns="http://www.w3.org/2000/svg"
   xmlns:svg="http://www.w3.org/2000/svg">
  <defs
     id="defs1" />
  <sodipodi:namedview
     id="namedview1"
     pagecolor="#ffffff"
     bordercolor="#000000"
     borderopacity="0.25"
     inkscape:showpageshadow="2"
     inkscape:pageopacity="0.0"
     inkscape:pagecheckerboard="0"
     inkscape:deskcolor="#d1d1d1"
     inkscape:zoom="17.666667"
     inkscape:cx="7.5"
     inkscape:cy="22.132075"
     inkscape:window-width="1920"
     inkscape:window-height="1056"
     inkscape:window-x="0"
     inkscape:window-y="0"
     inkscape:window-maximized="1"
     inkscape:current-layer="svg1" />
  <g
     id="g5"
     transform="matrix(0.15918916,0,0,0.16310846,0.97471797,0.70327117)"
     style="fill:#000000;fill-opacity:1;stroke:none;stroke-width:6.20591;stroke-dasharray:none">
	<g
   id="g4"
   style="fill:#000000;fill-opacity:1;stroke:none;stroke-width:6.20591;stroke-dasharray:none">
		<path
   d="m 20.547,112.328 c 2.083,0 3.771,1.691 3.771,3.776 0,2.079 -1.688,3.765 -3.771,3.765 -2.084,0 -3.773,-1.686 -3.773,-3.765 0,-2.084 1.689,-3.776 3.773,-3.776 z"
   id="path1"
   style="fill:#000000;fill-opacity:1;stroke:none;stroke-width:6.20591;stroke-dasharray:none" />

		<path
   d="m 20.547,78.709 c 2.083,0 3.771,1.69 3.771,3.775 0,2.08 -1.688,3.766 -3.771,3.766 -2.084,0 -3.773,-1.686 -3.773,-3.766 0,-2.085 1.689,-3.775 3.773,-3.775 z"
   id="path2"
   style="fill:#000000;fill-opacity:1;stroke:none;stroke-width:6.20591;stroke-dasharray:none" />

		<circle
   cx="20.547001"
   cy="48.862"
   r="3.7709999"
   id="circle2"
   style="fill:#000000;fill-opacity:1;stroke:none;stroke-width:6.20591;stroke-dasharray:none" />

		<path
   d="m 14.478,126.589 c -2.881,0 -5.244,-2.354 -5.244,-5.248 v -10.484 c 0,-2.895 2.363,-5.247 5.244,-5.247 h 48.603 c 0,-0.011 0,-0.011 0,-0.022 0,-4.422 0.792,-8.656 2.169,-12.618 H 14.478 c -2.881,0 -5.244,-2.362 -5.244,-5.253 V 77.236 c 0,-2.893 2.363,-5.246 5.244,-5.246 h 68.345 c 5.56,-3.126 11.962,-4.923 18.779,-4.923 5.976,0 11.62,1.408 16.668,3.85 l -1.686,-9.757 c 1.708,-1.866 2.782,-4.331 2.782,-7.058 V 43.617 c 0,-0.117 -0.057,-0.208 -0.057,-0.32 L 108.848,5.211 C 108.53,2.35 105.654,0 102.446,0 h -81.53 c -3.207,0 -6.09,2.35 -6.404,5.211 L 4.049,43.297 c 0,0.112 -0.055,0.203 -0.055,0.32 v 10.484 c 0,2.722 1.071,5.192 2.78,7.058 L 4.049,76.914 c 0,0.115 -0.055,0.208 -0.055,0.322 v 10.485 c 0,2.719 1.071,5.192 2.78,7.059 l -2.725,15.754 c 0,0.114 -0.055,0.207 -0.055,0.322 v 10.484 c 0,5.784 4.706,10.49 10.484,10.49 h 58.999 c -1.521,-1.631 -2.91,-3.371 -4.13,-5.242 H 14.478 Z M 9.239,43.617 c 0,-2.893 2.365,-5.25 5.246,-5.25 h 94.401 c 2.885,0 5.248,2.358 5.248,5.25 v 10.484 c 0,2.893 -2.363,5.25 -5.248,5.25 H 14.478 c -2.881,0 -5.244,-2.357 -5.244,-5.25 V 43.617 Z"
   id="path3"
   style="fill:#000000;fill-opacity:1;stroke:none;stroke-width:6.20591;stroke-dasharray:none" />

		<path
   d="m 101.603,72.679 c -18.178,0 -32.919,14.73 -32.919,32.92 0,18.178 14.741,32.919 32.919,32.919 18.181,0 32.921,-14.741 32.921,-32.919 -0.001,-18.179 -14.741,-32.92 -32.921,-32.92 z m 16.461,37.855 h -11.531 v 11.519 H 96.662 V 110.534 H 85.133 v -9.883 H 96.662 V 89.133 h 9.871 v 11.519 h 11.531 z"
   id="path4"
   style="fill:#000000;fill-opacity:1;stroke:none;stroke-width:6.20591;stroke-dasharray:none" />

	</g>

</g>
</svg>
